<svg xmlns="http://www.w3.org/2000/svg" xmlns:xlink="http://www.w3.org/1999/xlink" viewBox="0 0 500 500" width="500" height="500">
  <defs>
    <!-- white circle -->
    <path d="M251.34 496.21c-135.66 0-245.81-109.39-245.81-244.14C5.53 117.31 115.68 7.9 251.34 7.9c135.65 0 245.79 109.41 245.79 244.17 0 134.75-110.14 244.14-245.79 244.14z" id="a"/>
    <!-- black circle -->
    <path d="M50.75 381.32c-73.67-75.78-61.16-211.68 27.88-303.26 89.05-91.59 221.15-104.44 294.81-28.68 73.67 75.78 61.19 211.67-27.85 303.26-89.05 91.59-221.17 104.43-294.84 28.68z" id="b"/>
    <!-- right star -->
    <path d="M315.14 165.5l-33.05-18.08-5-39.32-26.07 27.94-36.43-7.31 16.94 35.36L214 198.86l36.55-6.08 25.59 28.81 5.65-39.11 33.35-16.98z" id="c"/>
    <!-- left start -->
    <path d="M172.7 119.55l-50.78 28.41-7.95 61.12-39.76-43.22-55.9 11.69 26.22-55.12-26.6-53.93 55.96 9.14 39.45-44.98 8.37 60.76 50.99 26.13z" id="d"/>
  </defs>
  <!-- white circle use -->
  <use xlink:href="#a" fill="#fff"/>
  <use xlink:href="#a" fill-opacity="0" stroke="#000" stroke-width="2"/>
  <!-- dark circle use -->
  <use xlink:href="#b" fill="#020202"/>
  <!-- right star use -->
  <use xlink:href="#c" fill="#fff"/>
  <!-- left star use -->
  <use xlink:href="#d" fill="#fff"/>
  <use xlink:href="#d" fill-opacity="0" stroke="#000" stroke-width="2"/>
</svg>
