<svg xmlns="http://www.w3.org/2000/svg" xmlns:xlink="http://www.w3.org/1999/xlink" viewBox="0 0 500 500" width="500" height="500">
  <defs>
    <!-- left cloud -->
    <path d="M246.42 179.32c-1.42-14.85-10.41-20.18-20.57-22.59 4.1-27.61-2.46-36.42-12.09-42.95-14.24-9.63-27.77-9.83-41.13 0-2.01-20.71-16.32-23.39-18.13-25.97-16.13-5.29-27.41-3.78-36.29 3.38-8.86 7.15-15.23 20.33-16.92 22.59-18.92-13.15-31.57-5.07-35.08-5.64-10.28 4.77-17.93 11.56-20.56 20.35-4.15 6.98-3.33 15.27 0 24.84-13.16 9.08-14.15 16.28-15.72 18.09-1.39 4.88-6.2 18.47 2.42 30.51 3.6 5.05 10.06 9.19 19.34 12.43h168.12c17.03-10.96 27.58-24.78 26.61-35.04z" id="a"/>
    <linearGradient id="b" gradientUnits="userSpaceOnUse" x1="136.91" y1="84.65" x2="136.91" y2="214.36">
      <stop offset="0%" stop-color="#fff"/>
      <stop offset="44.31793%" stop-color="#f2f2f2"/>
      <stop offset="78.9075%" stop-color="#dcdcdc"/>
      <stop offset="100%" stop-color="#b6b6b6"/>
    </linearGradient>
    <!-- right cloud -->
    <path d="M495.44 246.53c-1.64-17.93-12.12-24.34-23.99-27.25 4.78-33.27-2.87-43.92-14.1-51.77-16.61-11.63-32.4-11.86-47.96 0-2.35-24.98-19.05-28.2-21.17-31.34-18.81-6.35-31.97-4.53-42.32 4.09-10.34 8.64-17.77 24.52-19.75 27.25-22.06-15.87-36.83-6.13-40.91-6.8-11.98 5.75-20.91 13.93-23.98 24.51-4.85 8.43-3.9 18.42 0 29.97-15.35 10.94-16.51 19.63-18.34 21.8-1.62 5.89-7.22 22.28 2.82 36.79 4.21 6.08 11.74 11.07 22.57 14.98H464.4c19.89-13.2 32.18-29.88 31.04-42.23z" id="c"/>
    <linearGradient id="d" gradientUnits="userSpaceOnUse" x1="367.7" y1="132.39" x2="367.7" y2="288.76">
      <stop offset="0%" stop-color="#fff"/>
      <stop offset="44.31793%" stop-color="#f2f2f2"/>
      <stop offset="78.9075%" stop-color="#dcdcdc"/>
      <stop offset="100%" stop-color="#b6b6b6"/>
    </linearGradient>
    <!-- middle cloud -->
    <path d="M477.01 338.5c-3.05-32.36-22.52-43.95-44.52-49.21 8.86-60.07-5.35-79.29-26.19-93.47-30.83-20.99-60.13-21.43-89.03 0-4.37-45.12-35.36-50.94-39.29-56.58-34.91-11.48-59.36-8.21-78.57 7.38-19.18 15.57-32.98 44.27-36.65 49.2-40.94-28.66-68.34-11.08-75.94-12.3C64.56 193.9 48 208.69 42.3 227.79c-9 15.22-7.22 33.27 0 54.13-28.5 19.76-30.65 35.43-34.04 39.35-3.01 10.63-13.41 40.24 5.24 66.43 7.82 10.99 21.78 20.02 41.89 27.07h364c36.91-23.85 59.72-53.96 57.62-76.27z" id="e"/>
    <linearGradient id="f" gradientUnits="userSpaceOnUse" x1="239.9" y1="132.39" x2="239.9" y2="414.77">
      <stop offset="0%" stop-color="#fff"/>
      <stop offset="44.31793%" stop-color="#f2f2f2"/>
      <stop offset="78.9075%" stop-color="#dcdcdc"/>
      <stop offset="100%" stop-color="#b6b6b6"/>
    </linearGradient>
  </defs>
  <!-- left cloud use -->
  <use xlink:href="#a" fill="url(#b)"/>
  <use xlink:href="#a" fill-opacity="0" stroke="#000" stroke-width="1.5"/>
  <!-- right cloud use -->
  <use xlink:href="#c" fill="url(#d)"/>
  <use xlink:href="#c" fill-opacity="0" stroke="#000" stroke-width="1.5"/>
  <!-- middle cloud -->
  <use xlink:href="#e" fill="url(#f)"/>
  <use xlink:href="#e" fill-opacity="0" stroke="#000" stroke-width="1.5"/>
</svg>
