<svg xmlns="http://www.w3.org/2000/svg" xmlns:xlink="http://www.w3.org/1999/xlink" viewBox="0 0 640 640" width="500" height="500">
  <defs>
    <!-- right cloud -->
    <path d="M600.85 228.89c6.93-47.2-4.18-62.31-20.53-73.45-24.13-16.49-47.08-16.82-69.71 0-3.43-35.45-27.71-40-30.79-44.46-27.31-9.02-46.47-6.42-61.52 5.8-15.05 12.25-25.84 34.79-28.73 38.66-32.05-22.51-53.51-8.71-59.46-9.65-17.42 8.14-30.42 19.78-34.87 34.79-7.05 11.94-5.68 26.13 0 42.51-22.32 15.53-24.01 27.85-26.67 30.94-2.35 8.36-10.5 31.63 4.11 52.21 6.12 8.64 17.08 15.72 32.81 21.27h285.08c28.93-18.75 46.79-42.42 45.13-59.93-2.38-25.44-17.62-34.56-34.85-38.69z" id="a"/>
    <linearGradient id="b" gradientUnits="userSpaceOnUse" x1="449.99" y1="105.6" x2="449.99" y2="327.51">
      <stop offset="0%" stop-color="#5e5e5e"/>
      <stop offset="100%" stop-color="#d9d9d9"/>
    </linearGradient>
    <!-- left cloud -->
    <path d="M523.84 226.94c-39.51-24.54-77.04-25.06-114.08 0-5.6-52.77-45.31-59.59-50.34-66.2-44.76-13.46-76.09-9.61-100.7 8.61-24.59 18.25-42.29 51.83-46.97 57.59-52.48-33.51-87.6-12.96-97.33-14.4-28.55 12.18-49.76 29.48-57.07 51.84-11.53 17.79-9.27 38.94 0 63.34-36.53 23.11-39.27 41.45-43.64 46.08-3.86 12.43-17.19 47.06 6.72 77.72 10.03 12.89 27.92 23.44 53.72 31.67h466.49c47.31-27.89 76.56-63.16 73.84-89.26-3.91-37.86-28.86-51.43-57.04-57.57 11.36-70.33-6.85-92.8-33.6-109.42z" id="c"/>
    <linearGradient id="d" gradientUnits="userSpaceOnUse" x1="310.59" y1="152.71" x2="310.59" y2="483.19">
      <stop offset="0%" stop-color="#fff"/>
      <stop offset="62.96339%" stop-color="#fff"/>
      <stop offset="100%" stop-color="#a1a1a1"/>
    </linearGradient>
    <!-- left snowflake -->
    <path d="M115.64 502.66L129 488.71l10.23 1.58 2.18 8.26-14.27 14 18.67 3.85 3.11 8.23-6.21 6.64-18.75-4.46 4.43 17.82-3.52 5.24-10.21-.92-6.29-18.41-14.31 13.97-8.42-1.65-3.11-8.24 14.37-13.34-19.65-3.84-3.06-7.58 7.12-7.32 17.79 3.9-5.29-16.52 6.22-6.64 9.35 1.61 6.26 17.77z" id="e"/>
    <path d="M132.97 495.32l1 2.5-16.93 17.33 24.32 5.57 1.03 2.55-2.72 2.03-23.37-5.65 6.46 22.9-1.78 2.01-2.82-.57-7.36-22.87-16.99 17.25-4.65-.45-.09-2.59 16.95-17.26-24.29-4.98-1.03-2.5 2.69-2 24.32 4.93-7.39-22.87 2.69-2.03 1.89.61 8.32 22.8 16.93-17.25 2.82.54z" id="f"/>
    <path d="M104.68 461.45l-4.46 4.04 1.08 4.43 9.84-9.32 2.18 8.29-8.91 9.27 1.1 3.85 14.27-13.97 2.17 8.28-16.98 16.62-24.32-4.98-2.15-8.26 19.64 4.48-1.07-4.48-14.98-2.69-2.15-7.63 14.04 2.72-1.12-4.44-7.44-1.04-3.11-8.24 7.49 1.66-1.08-3.8 7.34-2.18 1.11 4.46 4.43-4.65 3.08 7.58z" id="g"/>
    <path d="M166.03 478.21l-7.27.31-4.19 3.54 16.47-1-7.75 6.66-15.84 1.46-3.52 3.07 24.37-1.7-7.73 6.66-29 2.03-9.84-16.15 7.74-6.6 7.46 13.33 4.19-3.52-6.39-9.7 7.02-6.2 5.83 9.2 4.18-3.52-3.55-4.64 7.12-7.13 2.87 5.1 3.52-3.1 7.02 2.43-4.21 3.54 7.91-.73-6.41 6.66z" id="h"/>
    <path d="M177.8 536.96l-2.82-4.56-6.21-1.37 6.9 10.27-11.55-2.48-7.34-9.7-5.39-1.09 10.57 15.11-11.55-2.48-12.6-17.98 18.43-12.51 11.57 2.47-15.49 9.92 6.19 1.39 10.89-7.86 10.75 2.2-10.48 7.27 6.19 1.39 5.02-4.09 11.99 1.94-5.85 3.75 5.39 1.14-.91 5.45-6.19-1.37 3.65 4.84-11.16-1.65z" id="i"/>
    <path d="M120.9 572.88l4.41-4.06-1.2-4.44-9.67 9.4-2.35-8.27 8.79-9.37-1.15-3.8-14.07 14.09-2.33-8.26 16.72-16.75 24.39 4.76 2.33 8.24-19.75-4.29 1.17 4.46 15.01 2.57 2.3 7.6-14.1-2.62 1.17 4.44 7.52.99 3.23 8.19-7.54-1.58 1.15 3.77-7.27 2.24-1.17-4.43-4.41 4.67-3.18-7.55z" id="j"/>
    <path d="M57.92 557.75l7.21-.4 4.12-3.61-16.42 1.22 7.51-6.75 15.81-1.7 3.4-3.13-24.33 2.1 7.52-6.78 28.94-2.5 10.4 15.96-7.53 6.77-7.91-13.22-4.08 3.59 6.75 9.61-6.88 6.27-6.09-9.11-4.11 3.59 3.74 4.6-6.9 7.2-3.03-5.03-3.43 3.19-7.09-2.34 4.08-3.61-7.88.83 6.2-6.75z" id="k"/>
    <path d="M46.22 494.75l2.42 4.7 6.05 1.65-5.95-10.55 11.28 2.95 6.46 10.01 5.26 1.32-9.18-15.55 11.29 2.97 10.96 18.51-19.46 11.73-11.3-2.98 16.3-9.25-6.05-1.63L52.73 516l-10.5-2.67 11.11-6.82-6.07-1.65-5.38 3.87-11.77-2.43 6.16-3.52-5.26-1.32 1.4-5.43 6.04 1.63-3.23-5.01 10.99 2.1z" id="l"/>
    <!-- middle snowflake -->
    <path d="M272.47 439.38l13.36-13.95 10.23 1.59 2.18 8.26-14.27 13.99 18.67 3.85 3.11 8.24-6.21 6.63-18.75-4.46 4.43 17.82-3.52 5.24-10.21-.92-6.29-18.41-14.31 13.97-8.42-1.65-3.11-8.24 14.37-13.33-19.65-3.85-3.06-7.58 7.12-7.31 17.79 3.89-5.29-16.52 6.22-6.63 9.35 1.6 6.26 17.77z" id="m"/>
    <path d="M289.8 432.04l1 2.5-16.93 17.33 24.32 5.57 1.03 2.55-2.72 2.03-23.37-5.64 6.46 22.89-1.78 2.01-2.82-.57-7.36-22.87-16.99 17.25-4.65-.44-.09-2.6 16.95-17.25-24.3-4.98-1.02-2.51 2.69-2 24.32 4.93-7.39-22.87 2.69-2.03 1.89.61 8.32 22.8 16.93-17.25 2.82.54z" id="n"/>
    <path d="M261.51 398.17l-4.46 4.04 1.08 4.44 9.84-9.33 2.18 8.29-8.91 9.27 1.1 3.85 14.27-13.97 2.17 8.28-16.98 16.62-24.32-4.98-2.16-8.26 19.65 4.48-1.07-4.48-14.98-2.69-2.15-7.63 14.04 2.72-1.12-4.44-7.44-1.04-3.11-8.24 7.49 1.66-1.08-3.8 7.34-2.17 1.11 4.46 4.42-4.65 3.09 7.57z" id="o"/>
    <path d="M322.86 414.93l-7.27.31-4.19 3.54 16.47-.99-7.76 6.65-15.83 1.47-3.52 3.06 24.37-1.69-7.73 6.65-29 2.03-9.84-16.14 7.74-6.61 7.46 13.33 4.18-3.51-6.38-9.7 7.02-6.21 5.82 9.2 4.19-3.51-3.55-4.65 7.12-7.13 2.87 5.1 3.52-3.09 7.02 2.43-4.21 3.54 7.91-.73-6.41 6.65z" id="p"/>
    <path d="M334.63 473.68l-2.82-4.56-6.21-1.37 6.9 10.27-11.55-2.48-7.34-9.7-5.39-1.08 10.57 15.1-11.55-2.48-12.6-17.98 18.43-12.51 11.57 2.48-15.49 9.91 6.19 1.39 10.89-7.86 10.75 2.2-10.48 7.27 6.19 1.39 5.02-4.08 11.99 1.93-5.85 3.75 5.38 1.14-.9 5.45-6.19-1.37 3.64 4.84-11.15-1.65z" id="q"/>
    <path d="M277.73 509.6l4.41-4.06-1.2-4.44-9.67 9.4-2.35-8.26 8.79-9.37-1.15-3.8-14.07 14.09-2.33-8.26 16.72-16.76 24.39 4.77 2.33 8.23-19.75-4.29 1.17 4.46 15 2.57 2.3 7.6-14.09-2.62 1.17 4.44 7.52.99 3.23 8.19-7.54-1.58 1.15 3.77-7.27 2.25-1.17-4.44-4.41 4.67-3.18-7.55z" id="r"/>
    <path d="M214.74 494.47l7.22-.4 4.11-3.61-16.41 1.23 7.51-6.75 15.81-1.7 3.4-3.14-24.33 2.1 7.52-6.78 28.94-2.5 10.4 15.96-7.53 6.77-7.91-13.22-4.08 3.59 6.75 9.61-6.88 6.28-6.09-9.11-4.11 3.58 3.74 4.61-6.9 7.19-3.03-5.02-3.43 3.18-7.09-2.33 4.08-3.61-7.88.82 6.19-6.75z" id="s"/>
    <path d="M203.05 431.48l2.42 4.69 6.04 1.66-5.94-10.55 11.28 2.95 6.46 10 5.26 1.32-9.18-15.55 11.29 2.97 10.96 18.51-19.46 11.73-11.3-2.97 16.3-9.26-6.05-1.63-11.57 7.37-10.5-2.67 11.11-6.82-6.07-1.65-5.38 3.87-11.77-2.43 6.16-3.52-5.26-1.32 1.4-5.43 6.04 1.63-3.23-5 10.99 2.1z" id="t"/>
    <!-- right snowflake -->
    <path d="M451.63 509l13.36-13.95 10.23 1.58 2.18 8.27-14.27 13.99 18.68 3.85 3.1 8.24-6.21 6.63-18.75-4.46 4.43 17.82-3.52 5.24-10.21-.92-6.28-18.41-14.32 13.97-8.42-1.65-3.1-8.24 14.36-13.34-19.65-3.84-3.06-7.58 7.12-7.32 17.79 3.9-5.28-16.52 6.21-6.64 9.35 1.61 6.26 17.77z" id="u"/>
    <path d="M468.96 501.66l1 2.5-16.93 17.33 24.32 5.57 1.03 2.55-2.72 2.03-23.37-5.64 6.46 22.89-1.78 2.01-2.82-.57-7.36-22.87-16.98 17.25-4.65-.45-.1-2.59 16.96-17.26-24.3-4.98-1.03-2.5 2.69-2 24.33 4.93-7.39-22.87 2.69-2.03 1.88.61 8.32 22.8 16.93-17.25 2.82.54z" id="v"/>
    <path d="M440.67 467.79l-4.45 4.04 1.07 4.44 9.84-9.33 2.18 8.29-8.91 9.27 1.1 3.85 14.27-13.97 2.18 8.28-16.99 16.62-24.32-4.98-2.15-8.26 19.65 4.48-1.08-4.48-14.98-2.69-2.15-7.63 14.05 2.72-1.13-4.44-7.44-1.04-3.11-8.24 7.49 1.66-1.07-3.8 7.34-2.18 1.1 4.47 4.43-4.65 3.08 7.57z" id="w"/>
    <path d="M502.02 484.55l-7.27.31-4.18 3.54 16.47-.99-7.76 6.65-15.83 1.47-3.53 3.06 24.37-1.7-7.73 6.66-29 2.03-9.83-16.14 7.73-6.61 7.46 13.33 4.19-3.51-6.39-9.7 7.02-6.21 5.83 9.2 4.18-3.51-3.55-4.65 7.12-7.13 2.87 5.1 3.52-3.1 7.02 2.44-4.2 3.54 7.9-.74-6.41 6.66z" id="x"/>
    <path d="M513.79 543.3l-2.82-4.56-6.21-1.37 6.9 10.27-11.55-2.48-7.34-9.7-5.38-1.09 10.57 15.11-11.55-2.48-12.61-17.98 18.43-12.51 11.57 2.48-15.48 9.91 6.19 1.39 10.89-7.86 10.74 2.2-10.48 7.27 6.2 1.39 5.01-4.08 11.99 1.93-5.85 3.75 5.39 1.14-.91 5.45-6.19-1.37 3.65 4.84-11.16-1.65z" id="y"/>
    <path d="M456.89 579.22l4.41-4.06-1.2-4.44-9.67 9.4-2.34-8.26 8.78-9.37-1.15-3.8-14.07 14.09-2.32-8.26 16.71-16.76 24.4 4.77 2.32 8.23-19.75-4.29 1.18 4.46 15 2.57 2.3 7.6-14.1-2.62 1.18 4.44 7.51.99 3.23 8.19-7.54-1.58 1.15 3.77-7.26 2.25-1.18-4.44-4.4 4.67-3.19-7.55z" id="z"/>
    <path d="M393.91 564.09l7.22-.4 4.11-3.61-16.42 1.23 7.51-6.76 15.81-1.69 3.4-3.14-24.32 2.1 7.51-6.78 28.95-2.5 10.4 15.96-7.54 6.77-7.9-13.22-4.09 3.59 6.75 9.61-6.87 6.27-6.1-9.11-4.11 3.59 3.75 4.6-6.9 7.2-3.04-5.02-3.42 3.18-7.1-2.33 4.09-3.62-7.88.83 6.19-6.75z" id="A"/>
    <path d="M382.21 501.1l2.42 4.69 6.05 1.65-5.95-10.55 11.28 2.95 6.46 10.01 5.26 1.32-9.17-15.55 11.28 2.97 10.96 18.51-19.45 11.73-11.31-2.98 16.3-9.25-6.05-1.63-11.57 7.37-10.5-2.67 11.11-6.82-6.07-1.65-5.38 3.87-11.77-2.43 6.17-3.52-5.27-1.32 1.4-5.43 6.04 1.63-3.23-5.01 10.99 2.11z" id="B"/>
  </defs>
  <!-- right cloud -->
  <use xlink:href="#a" fill="url(#b)"/>
  <use xlink:href="#a" fill-opacity="0" stroke="#000" stroke-width="1.5"/>
  <!-- left cloud -->
  <use xlink:href="#c" fill="url(#d)"/>
  <use xlink:href="#c" fill-opacity="0" stroke="#000" stroke-width="1.5"/>
  <!-- snowflake use group -->
  <g>
    <!-- left snowflake -->
    <g>
      <use xlink:href="#e" fill-opacity="0"/>
      <use xlink:href="#e" fill-opacity="0" stroke="#06204d"/>
      <use xlink:href="#f" fill="#06204d"/>
      <use xlink:href="#f" fill-opacity="0" stroke="#000" stroke-opacity="0"/>
      <use xlink:href="#g" fill="#06204d"/>
      <use xlink:href="#g" fill-opacity="0" stroke="#000" stroke-opacity="0"/>
      <use xlink:href="#h" fill="#06204d"/>
      <use xlink:href="#h" fill-opacity="0" stroke="#000" stroke-opacity="0"/>
      <use xlink:href="#i" fill="#06204d"/>
      <use xlink:href="#i" fill-opacity="0" stroke="#000" stroke-opacity="0"/>
      <use xlink:href="#j" fill="#06204d"/>
      <use xlink:href="#j" fill-opacity="0" stroke="#000" stroke-opacity="0"/>
      <use xlink:href="#k" fill="#06204d"/>
      <use xlink:href="#k" fill-opacity="0" stroke="#000" stroke-opacity="0"/>
      <use xlink:href="#l" fill="#06204d"/>
      <use xlink:href="#l" fill-opacity="0" stroke="#000" stroke-opacity="0"/>
    </g>
    <!-- middle snowflake -->
    <g>
        <use xlink:href="#m" fill-opacity="0"/>
        <use xlink:href="#m" fill-opacity="0" stroke="#06204d"/>
        <use xlink:href="#n" fill="#06204d"/>
        <use xlink:href="#n" fill-opacity="0" stroke="#000" stroke-opacity="0"/>
        <use xlink:href="#o" fill="#06204d"/>
        <use xlink:href="#o" fill-opacity="0" stroke="#000" stroke-opacity="0"/>
        <use xlink:href="#p" fill="#06204d"/>
        <use xlink:href="#p" fill-opacity="0" stroke="#000" stroke-opacity="0"/>
        <use xlink:href="#q" fill="#06204d"/>
        <use xlink:href="#q" fill-opacity="0" stroke="#000" stroke-opacity="0"/>
        <use xlink:href="#r" fill="#06204d"/>
        <use xlink:href="#r" fill-opacity="0" stroke="#000" stroke-opacity="0"/>
        <use xlink:href="#s" fill="#06204d"/>
        <use xlink:href="#s" fill-opacity="0" stroke="#000" stroke-opacity="0"/>
        <use xlink:href="#t" fill="#06204d"/>
        <use xlink:href="#t" fill-opacity="0" stroke="#000" stroke-opacity="0"/>
    </g>
    <!-- right snowflake -->
    <g>
      <use xlink:href="#u" fill-opacity="0"/>
      <use xlink:href="#u" fill-opacity="0" stroke="#06204d"/>
      <use xlink:href="#v" fill="#06204d"/>
      <use xlink:href="#v" fill-opacity="0" stroke="#000" stroke-opacity="0"/>
      <use xlink:href="#w" fill="#06204d"/>
      <use xlink:href="#w" fill-opacity="0" stroke="#000" stroke-opacity="0"/>
      <use xlink:href="#x" fill="#06204d"/>
      <use xlink:href="#x" fill-opacity="0" stroke="#000" stroke-opacity="0"/>
      <use xlink:href="#y" fill="#06204d"/>
      <use xlink:href="#y" fill-opacity="0" stroke="#000" stroke-opacity="0"/>
      <use xlink:href="#z" fill="#06204d"/>
      <use xlink:href="#z" fill-opacity="0" stroke="#000" stroke-opacity="0"/>
      <use xlink:href="#A" fill="#06204d"/>
      <use xlink:href="#A" fill-opacity="0" stroke="#000" stroke-opacity="0"/>
      <use xlink:href="#B" fill="#06204d"/>
      <use xlink:href="#B" fill-opacity="0" stroke="#000" stroke-opacity="0"/>
    </g>
  </g>
</svg>
